<svg width="32" height="32" viewBox="0 0 32 32" fill="none" xmlns="http://www.w3.org/2000/svg">
<path d="M6 12.3333H26V14.3333H6V12.3333ZM10.5 18.6667H21.5V20.6667H10.5V18.6667ZM13.5 25H18.5V27H13.5V25ZM3 6H29V8H3V6Z" fill="#FFFBFB"/>
<path d="M25.6484 21.7812H26.3516C26.4141 21.7812 26.4453 21.8125 26.4453 21.875V30.125C26.4453 30.1875 26.4141 30.2188 26.3516 30.2188H25.6484C25.5859 30.2188 25.5547 30.1875 25.5547 30.125V21.875C25.5547 21.8125 25.5859 21.7812 25.6484 21.7812Z" fill="#F8F8F8"/>
<path d="M22.0625 25.5547H29.9375C30 25.5547 30.0312 25.5859 30.0312 25.6484V26.3516C30.0312 26.4141 30 26.4453 29.9375 26.4453H22.0625C22 26.4453 21.9688 26.4141 21.9688 26.3516V25.6484C21.9688 25.5859 22 25.5547 22.0625 25.5547Z" fill="#F8F8F8"/>
</svg>
