<svg width="68" height="21" viewBox="0 0 68 21" fill="none" xmlns="http://www.w3.org/2000/svg">
<path fill-rule="evenodd" clip-rule="evenodd" d="M33.6188 3.38187C34.2608 2.74836 35.3016 2.74836 35.9436 3.38187C36.5856 4.01544 36.5856 5.04262 35.9436 5.67618L32.0297 9.53877C30.906 8.05252 31.0281 5.93873 32.396 4.58879L33.6188 3.38187Z" fill="#4F9E91"/>
<path fill-rule="evenodd" clip-rule="evenodd" d="M39.2136 12.0964C39.8556 12.7299 39.8556 13.7571 39.2136 14.3906C38.572 15.0242 37.531 15.0242 36.889 14.3906L32.9751 10.5281C34.4811 9.4191 36.623 9.53953 37.9908 10.8895L39.2136 12.0964Z" fill="#EBE1C5"/>
<path fill-rule="evenodd" clip-rule="evenodd" d="M30.3834 17.6183C29.7414 18.2518 28.7006 18.2518 28.0586 17.6183C27.4167 16.9847 27.4167 15.9575 28.0586 15.324L31.9725 11.4614C33.0962 12.9477 32.9741 15.0615 31.6063 16.4114L30.3834 17.6183Z" fill="#EBCC6E"/>
<path fill-rule="evenodd" clip-rule="evenodd" d="M24.7881 8.90374C24.1461 8.27018 24.1461 7.24301 24.7881 6.60945C25.4301 5.97589 26.4709 5.97589 27.1129 6.60945L31.0268 10.472C29.5208 11.581 27.3789 11.4605 26.0111 10.1106L24.7881 8.90374Z" fill="#ED834E"/>
<path fill-rule="evenodd" clip-rule="evenodd" d="M32.7441 17.1451C33.6907 16.1064 34.1307 14.7773 34.0639 13.4688L35.9436 15.3238C35.9483 15.3284 35.953 15.333 35.9577 15.3376V16.662C35.9577 17.558 35.2217 18.2843 34.3139 18.2843C33.5765 18.2843 32.9525 17.8051 32.7441 17.1451Z" fill="#ED834E"/>
<path fill-rule="evenodd" clip-rule="evenodd" d="M25.2676 11.2329C26.32 12.1671 27.6668 12.6013 28.9927 12.5355L27.1131 14.3905C27.1084 14.3951 27.1037 14.3998 27.0991 14.4044H25.7571C24.8493 14.4044 24.1133 13.678 24.1133 12.7821C24.1133 12.0544 24.5988 11.4385 25.2676 11.2329Z" fill="#4F9E91"/>
<path fill-rule="evenodd" clip-rule="evenodd" d="M38.7348 9.76672C37.6824 8.83249 36.3357 8.39829 35.0098 8.46412L36.8894 6.60914C36.8941 6.60453 36.8987 6.59987 36.9034 6.59521H38.2454C39.1534 6.59521 39.8894 7.32159 39.8894 8.21756C39.8894 8.9453 39.4037 9.5611 38.7348 9.76672Z" fill="#EBCC6E"/>
<path fill-rule="evenodd" clip-rule="evenodd" d="M31.2585 3.85458C30.3119 4.89322 29.8719 6.2223 29.9387 7.53091L28.059 5.67588C28.0543 5.67127 28.0496 5.66666 28.0449 5.66205V4.33767C28.0449 3.4417 28.7809 2.71533 29.6888 2.71533C30.4262 2.71533 31.0502 3.19454 31.2585 3.85458Z" fill="#EBE1C5"/>
<path fill-rule="evenodd" clip-rule="evenodd" d="M29.6886 1.39551C28.0421 1.39551 26.7073 2.7128 26.7073 4.33774V4.90999C25.7167 4.65457 24.6189 4.90985 23.8426 5.67594C22.6784 6.82496 22.6784 8.68789 23.8426 9.83691L24.2526 10.2415C23.3692 10.7522 22.7759 11.6988 22.7759 12.7822C22.7759 14.4071 24.1107 15.7244 25.7572 15.7244H26.337C26.0782 16.702 26.3369 17.7854 27.1131 18.5515C28.2774 19.7005 30.1651 19.7005 31.3294 18.5515L32.5522 17.3446C33.631 16.2799 34.1349 14.8627 34.0638 13.4688L35.9435 15.3238C37.1078 16.4728 38.9955 16.4728 40.1598 15.3238C41.3242 14.1748 41.3242 12.3119 40.1598 11.1629L39.75 10.7583C40.6331 10.2476 41.2265 9.30104 41.2265 8.21767C41.2265 6.59273 39.8915 5.27544 38.2452 5.27544H37.6653C37.9242 4.2978 37.6655 3.21438 36.8892 2.44829C35.725 1.29927 33.8373 1.29927 32.673 2.44829L31.4501 3.6552C30.3713 4.71985 29.8674 6.13703 29.9385 7.53097L28.0589 5.67594C28.0542 5.67133 28.0495 5.66672 28.0448 5.66211V4.33774C28.0448 3.44178 28.7807 2.71545 29.6886 2.71545C30.426 2.71545 31.05 3.19461 31.2583 3.85465C31.3201 3.78691 31.384 3.72039 31.45 3.6552L32.263 2.85291C31.7455 1.98104 30.7864 1.39551 29.6886 1.39551ZM36.9032 6.59538C36.8986 6.59999 36.8939 6.60464 36.8892 6.60926L35.0096 8.46424C36.3356 8.39841 37.6823 8.83256 38.7346 9.76683C39.4035 9.56122 39.8892 8.94537 39.8892 8.21767C39.8892 7.3217 39.1532 6.59538 38.2452 6.59538H36.9032ZM27.0991 14.4045C27.1037 14.3998 27.1084 14.3951 27.1131 14.3905L28.9927 12.5355C27.6668 12.6014 26.3201 12.1672 25.2677 11.233C24.5989 11.4386 24.1133 12.0544 24.1133 12.7822C24.1133 13.6781 24.8493 14.4045 25.7572 14.4045H27.0991ZM25.2164 11.1869C25.1654 11.1404 25.1151 11.0927 25.0656 11.0438V11.0438C25.1151 11.0927 25.1654 11.1404 25.2164 11.1869ZM34.3138 19.6043C33.216 19.6043 32.2568 19.0187 31.7393 18.1469L32.5522 17.3446C32.6183 17.2794 32.6822 17.2129 32.744 17.1451C32.9523 17.8052 33.5763 18.2844 34.3138 18.2844C35.2216 18.2844 35.9576 17.5581 35.9576 16.6621V15.3377C36.3429 15.7129 36.8059 15.9637 37.2951 16.0898V16.6621C37.2951 18.287 35.9603 19.6043 34.3138 19.6043ZM35.9435 3.38161C35.3015 2.74809 34.2607 2.74809 33.6187 3.38161L32.3958 4.58851C31.028 5.93844 30.9059 8.05223 32.0296 9.53848L35.9435 5.6759C36.5855 5.04234 36.5855 4.01517 35.9435 3.38161ZM39.2138 14.3905C39.8559 13.7569 39.8559 12.7298 39.2138 12.0962L37.991 10.8893C36.6232 9.53939 34.4813 9.41892 32.9753 10.5279L36.8892 14.3905C37.5312 15.024 38.5722 15.024 39.2138 14.3905ZM30.3836 17.6181C29.7416 18.2517 28.7008 18.2517 28.0588 17.6181C27.4169 16.9846 27.4169 15.9574 28.0588 15.3238L31.9727 11.4613C33.0964 12.9475 32.9744 15.0613 31.6065 16.4112L30.3836 17.6181ZM24.7884 6.60926C24.1464 7.24282 24.1464 8.26999 24.7884 8.90355L26.0113 10.1105C27.3792 11.4603 29.521 11.5808 31.027 10.4718L27.1131 6.60926C26.4711 5.97574 25.4303 5.97574 24.7884 6.60926Z" fill="#3D3A2C"/>
</svg>
