<svg width="24" height="21" viewBox="0 0 24 21" fill="none" xmlns="http://www.w3.org/2000/svg">
<path d="M10.9059 2.74875C9.15286 2.94753 7.49014 3.63191 6.10509 4.72479L7.30384 5.925C7.49704 6.13234 7.60222 6.40657 7.59722 6.68993C7.59222 6.97328 7.47743 7.24364 7.27704 7.44403C7.07665 7.64443 6.80629 7.75921 6.52294 7.76421C6.23958 7.76921 5.96535 7.66403 5.75801 7.47083L4.55342 6.26771C3.52964 7.55185 2.86353 9.08381 2.62259 10.7083H5.07259C5.36267 10.7083 5.64087 10.8236 5.84599 11.0287C6.05111 11.2338 6.16634 11.512 6.16634 11.8021C6.16634 12.0922 6.05111 12.3704 5.84599 12.5755C5.64087 12.7806 5.36267 12.8958 5.07259 12.8958H2.55697C2.78402 15.2363 3.85372 17.4146 5.56697 19.0252C5.7736 19.2248 5.89341 19.4977 5.90051 19.7849C5.9076 20.0721 5.80141 20.3505 5.60489 20.5601C5.40836 20.7697 5.13727 20.8935 4.85021 20.9048C4.56314 20.9161 4.28314 20.814 4.07072 20.6206C1.82488 18.5162 0.333008 15.4129 0.333008 12.0835C0.333008 5.67854 5.56405 0.5 11.9997 0.5C18.4353 0.5 23.6663 5.67708 23.6663 12.0835C23.6635 13.682 23.3354 15.2631 22.7021 16.7308C22.0688 18.1984 21.1435 19.5219 19.9826 20.6206C19.7702 20.814 19.4902 20.9161 19.2031 20.9048C18.916 20.8935 18.6449 20.7697 18.4484 20.5601C18.2519 20.3505 18.1457 20.0721 18.1528 19.7849C18.1599 19.4977 18.2797 19.2248 18.4863 19.0252C20.1877 17.4119 21.2397 15.2316 21.4438 12.8958H18.9268C18.6367 12.8958 18.3585 12.7806 18.1534 12.5755C17.9482 12.3704 17.833 12.0922 17.833 11.8021C17.833 11.512 17.9482 11.2338 18.1534 11.0287C18.3585 10.8236 18.6367 10.7083 18.9268 10.7083H21.3768C20.7584 6.52875 17.362 3.23438 13.0934 2.74875V4.51042C13.0934 4.8005 12.9782 5.0787 12.7731 5.28381C12.568 5.48893 12.2898 5.60417 11.9997 5.60417C11.7096 5.60417 11.4314 5.48893 11.2263 5.28381C11.0212 5.0787 10.9059 4.8005 10.9059 4.51042V2.74875ZM17.0295 6.05188C17.162 5.94662 17.327 5.89075 17.4962 5.89382C17.6654 5.89689 17.8283 5.95872 17.9569 6.06872C18.0855 6.17871 18.1718 6.33001 18.2011 6.49669C18.2304 6.66337 18.2008 6.83505 18.1174 6.98229L17.957 7.26812C17.3705 8.30369 16.7804 9.33717 16.1865 10.3685C15.7118 11.1939 15.2305 12.0154 14.7428 12.8331C14.56 13.1408 14.3733 13.4461 14.1828 13.749C14.037 13.9779 13.894 14.1952 13.789 14.3177C13.4123 14.759 12.8757 15.0326 12.2973 15.0783C11.7189 15.1239 11.146 14.938 10.7047 14.5612C10.2634 14.1845 9.98978 13.6479 9.94411 13.0695C9.89844 12.4911 10.0844 11.9182 10.4611 11.4769C10.5661 11.3544 10.7572 11.1779 10.9613 10.9985C11.1801 10.8046 11.4615 10.5669 11.778 10.3C12.4138 9.76917 13.2101 9.11875 13.9859 8.49167C14.9113 7.7431 15.8398 6.99837 16.7713 6.2575L17.0295 6.05333V6.05188Z" fill="white"/>
</svg>
